<svg width="783" height="783" viewBox="0 0 783 783" fill="none" xmlns="http://www.w3.org/2000/svg">
<g clip-path="url(#clip0_2_2)">
<rect x="10" y="10" width="763" height="763" fill="#1A1A1A" stroke="#CDCDCD" stroke-width="20"/>
<path d="M167.895 555V231.593H379.689V287.399H235.579V374.134H367.138V427.699H235.579V555H167.895ZM516.851 559.931C492.347 559.931 471.28 554.925 453.649 544.915C436.018 534.754 422.421 520.336 412.859 501.659C403.446 482.982 398.739 460.869 398.739 435.319V435.095C398.739 409.545 403.446 387.432 412.859 368.755C422.421 349.929 435.794 335.436 452.977 325.276C470.309 314.966 490.704 309.812 514.162 309.812C537.62 309.812 557.865 314.817 574.898 324.828C592.081 334.689 605.304 348.659 614.568 366.738C623.981 384.817 628.688 405.959 628.688 430.165V450.335H430.789V409.097H597.759L566.606 447.646V422.544C566.606 408.5 564.439 396.771 560.106 387.357C555.773 377.795 549.722 370.623 541.953 365.842C534.333 361.061 525.442 358.67 515.282 358.67C505.122 358.67 496.083 361.135 488.164 366.066C480.394 370.997 474.268 378.243 469.786 387.806C465.453 397.219 463.286 408.798 463.286 422.544V447.87C463.286 461.168 465.453 472.523 469.786 481.937C474.268 491.35 480.618 498.596 488.836 503.676C497.054 508.607 506.84 511.072 518.196 511.072C527.161 511.072 534.93 509.653 541.504 506.814C548.079 503.975 553.458 500.389 557.641 496.056C561.825 491.723 564.664 487.315 566.158 482.833L566.606 481.488H626.67L625.998 483.954C624.205 492.769 620.694 501.659 615.464 510.624C610.235 519.589 603.138 527.807 594.173 535.277C585.357 542.748 574.525 548.725 561.675 553.207C548.975 557.689 534.034 559.931 516.851 559.931Z" fill="#CDCDCD"/>
<path d="M247.969 689V643.906H276.719V650.688H256.031V664.031H274.938V670.594H256.031V689H247.969ZM282.031 689V643.906H289.812V689H282.031ZM306.219 689.562C304.031 689.562 302.094 689.146 300.406 688.312C298.74 687.458 297.438 686.281 296.5 684.781C295.583 683.26 295.125 681.521 295.125 679.562V679.5C295.125 677.521 295.615 675.833 296.594 674.438C297.594 673.021 299.031 671.906 300.906 671.094C302.781 670.26 305.052 669.76 307.719 669.594L320.375 668.812V673.969L308.812 674.688C306.896 674.812 305.427 675.271 304.406 676.062C303.385 676.854 302.875 677.906 302.875 679.219V679.25C302.875 680.604 303.385 681.677 304.406 682.469C305.448 683.24 306.823 683.625 308.531 683.625C310.031 683.625 311.365 683.323 312.531 682.719C313.719 682.115 314.656 681.292 315.344 680.25C316.031 679.208 316.375 678.031 316.375 676.719V666.781C316.375 665.115 315.844 663.802 314.781 662.844C313.74 661.865 312.229 661.375 310.25 661.375C308.417 661.375 306.948 661.771 305.844 662.562C304.74 663.333 304.052 664.333 303.781 665.562L303.719 665.844H296.531L296.562 665.469C296.729 663.51 297.385 661.76 298.531 660.219C299.677 658.656 301.26 657.427 303.281 656.531C305.323 655.635 307.74 655.188 310.531 655.188C313.302 655.188 315.698 655.646 317.719 656.562C319.76 657.479 321.333 658.76 322.438 660.406C323.562 662.052 324.125 663.99 324.125 666.219V689H316.375V683.906H316.188C315.562 685.052 314.75 686.052 313.75 686.906C312.75 687.76 311.604 688.417 310.312 688.875C309.042 689.333 307.677 689.562 306.219 689.562ZM342.719 689.656C339.281 689.656 336.719 688.906 335.031 687.406C333.365 685.906 332.531 683.448 332.531 680.031V661.875H327.844V655.875H332.531V647.469H340.438V655.875H346.594V661.875H340.438V679.406C340.438 681.01 340.792 682.125 341.5 682.75C342.229 683.354 343.292 683.656 344.688 683.656C345.083 683.656 345.427 683.646 345.719 683.625C346.031 683.583 346.323 683.552 346.594 683.531V689.375C346.135 689.438 345.573 689.5 344.906 689.562C344.26 689.625 343.531 689.656 342.719 689.656ZM365.594 689V643.906H394.781V650.688H373.656V662.844H393.625V669.344H373.656V682.219H394.781V689H365.594ZM413.312 689.656C410.521 689.656 408.094 688.969 406.031 687.594C403.99 686.198 402.406 684.208 401.281 681.625C400.177 679.042 399.625 675.979 399.625 672.438V672.406C399.625 668.844 400.188 665.781 401.312 663.219C402.438 660.635 404.021 658.656 406.062 657.281C408.104 655.885 410.51 655.188 413.281 655.188C414.865 655.188 416.312 655.448 417.625 655.969C418.958 656.469 420.135 657.198 421.156 658.156C422.177 659.094 423 660.229 423.625 661.562H423.812V643.906H431.562V689H423.812V683.375H423.625C423.021 684.688 422.208 685.812 421.188 686.75C420.188 687.667 419.021 688.385 417.688 688.906C416.375 689.406 414.917 689.656 413.312 689.656ZM415.656 683.125C417.26 683.125 418.677 682.688 419.906 681.812C421.135 680.938 422.094 679.698 422.781 678.094C423.469 676.49 423.812 674.604 423.812 672.438V672.406C423.812 670.24 423.458 668.365 422.75 666.781C422.062 665.177 421.104 663.938 419.875 663.062C418.667 662.188 417.26 661.75 415.656 661.75C413.99 661.75 412.542 662.188 411.312 663.062C410.104 663.917 409.167 665.135 408.5 666.719C407.854 668.302 407.531 670.198 407.531 672.406V672.438C407.531 674.625 407.854 676.521 408.5 678.125C409.167 679.729 410.104 680.969 411.312 681.844C412.542 682.698 413.99 683.125 415.656 683.125ZM438.344 689V655.875H446.125V689H438.344ZM442.219 651.125C441.01 651.125 439.99 650.708 439.156 649.875C438.323 649.042 437.906 648.042 437.906 646.875C437.906 645.688 438.323 644.688 439.156 643.875C439.99 643.042 441.01 642.625 442.219 642.625C443.448 642.625 444.479 643.042 445.312 643.875C446.146 644.688 446.562 645.688 446.562 646.875C446.562 648.042 446.146 649.042 445.312 649.875C444.479 650.708 443.448 651.125 442.219 651.125ZM465.031 689.656C461.594 689.656 459.031 688.906 457.344 687.406C455.677 685.906 454.844 683.448 454.844 680.031V661.875H450.156V655.875H454.844V647.469H462.75V655.875H468.906V661.875H462.75V679.406C462.75 681.01 463.104 682.125 463.812 682.75C464.542 683.354 465.604 683.656 467 683.656C467.396 683.656 467.74 683.646 468.031 683.625C468.344 683.583 468.635 683.552 468.906 683.531V689.375C468.448 689.438 467.885 689.5 467.219 689.562C466.573 689.625 465.844 689.656 465.031 689.656ZM488.281 689.656C485.031 689.656 482.208 688.969 479.812 687.594C477.417 686.198 475.552 684.219 474.219 681.656C472.906 679.073 472.25 676 472.25 672.438V672.375C472.25 668.833 472.917 665.781 474.25 663.219C475.583 660.635 477.448 658.656 479.844 657.281C482.24 655.885 485.042 655.188 488.25 655.188C491.479 655.188 494.292 655.885 496.688 657.281C499.104 658.656 500.979 660.625 502.312 663.188C503.646 665.75 504.312 668.812 504.312 672.375V672.438C504.312 676.021 503.646 679.104 502.312 681.688C501 684.25 499.146 686.219 496.75 687.594C494.354 688.969 491.531 689.656 488.281 689.656ZM488.312 683.375C489.958 683.375 491.385 682.948 492.594 682.094C493.802 681.24 494.729 680 495.375 678.375C496.042 676.729 496.375 674.75 496.375 672.438V672.375C496.375 670.083 496.042 668.125 495.375 666.5C494.708 664.875 493.76 663.635 492.531 662.781C491.323 661.927 489.896 661.5 488.25 661.5C486.646 661.5 485.229 661.927 484 662.781C482.792 663.635 481.844 664.875 481.156 666.5C480.49 668.125 480.156 670.083 480.156 672.375V672.438C480.156 674.75 480.49 676.729 481.156 678.375C481.844 680 482.792 681.24 484 682.094C485.229 682.948 486.667 683.375 488.312 683.375ZM509.312 689V655.875H517.062V661.594H517.25C517.75 659.594 518.656 658.031 519.969 656.906C521.302 655.76 522.927 655.188 524.844 655.188C525.323 655.188 525.781 655.219 526.219 655.281C526.656 655.344 527.021 655.417 527.312 655.5V662.531C527 662.406 526.552 662.302 525.969 662.219C525.406 662.135 524.792 662.094 524.125 662.094C522.667 662.094 521.406 662.396 520.344 663C519.281 663.583 518.469 664.448 517.906 665.594C517.344 666.74 517.062 668.135 517.062 669.781V689H509.312Z" fill="#CDCDCD"/>
<path d="M67.8237 136V129.308L89.9434 107.101C92.7536 104.291 94.883 101.973 96.3315 100.148C97.7801 98.3228 98.7796 96.6859 99.3301 95.2373C99.8805 93.7598 100.156 92.2098 100.156 90.5874V90.5005C100.156 88.5015 99.6777 86.7342 98.7217 85.1987C97.7946 83.6632 96.5199 82.4609 94.8975 81.5918C93.2751 80.7227 91.3919 80.2881 89.248 80.2881C86.8145 80.2881 84.6416 80.7951 82.7295 81.8091C80.8464 82.8231 79.3543 84.1847 78.2534 85.894C77.1525 87.5744 76.6021 89.472 76.6021 91.5869L76.5586 91.8911H67.3457V91.5869C67.3457 87.8496 68.3018 84.5179 70.2139 81.5918C72.126 78.6657 74.7334 76.377 78.0361 74.7256C81.3678 73.0742 85.0617 72.2485 89.1177 72.2485C93.1737 72.2485 96.7516 73.0163 99.8516 74.5518C102.951 76.0872 105.371 78.2021 107.109 80.8965C108.876 83.5618 109.76 86.5894 109.76 89.979V90.0659C109.76 92.4416 109.325 94.7013 108.456 96.8452C107.587 98.9891 106.095 101.35 103.98 103.929C101.894 106.507 98.9679 109.665 95.2017 113.402L77.645 130.611L80.9478 124.354V130.611L77.645 127.787H110.759V136H67.8237ZM143.048 137.043C139.803 137.043 136.703 136.464 133.748 135.305C130.822 134.117 128.186 132.277 125.839 129.786C123.521 127.265 121.696 124.02 120.363 120.051C119.031 116.053 118.364 111.229 118.364 105.58V105.493C118.364 98.5111 119.349 92.543 121.319 87.5889C123.318 82.6058 126.187 78.8105 129.924 76.2031C133.69 73.5667 138.181 72.2485 143.396 72.2485C147.133 72.2485 150.493 72.9149 153.478 74.2476C156.491 75.5513 158.997 77.391 160.996 79.7666C162.995 82.1423 164.327 84.88 164.994 87.98L165.081 88.5015H155.303L155.129 88.0669C154.578 86.5024 153.753 85.1553 152.652 84.0254C151.551 82.8665 150.218 81.9829 148.654 81.3745C147.089 80.7371 145.308 80.4185 143.309 80.4185C139.745 80.4185 136.833 81.4614 134.574 83.5474C132.343 85.6333 130.677 88.4001 129.576 91.8477C128.504 95.2663 127.91 99.0615 127.794 103.233C127.765 103.552 127.751 103.885 127.751 104.233C127.751 104.552 127.751 104.885 127.751 105.232L129.62 115.575C129.62 118.038 130.199 120.283 131.358 122.311C132.546 124.31 134.139 125.903 136.138 127.091C138.166 128.25 140.426 128.83 142.917 128.83C145.38 128.83 147.611 128.25 149.61 127.091C151.638 125.932 153.246 124.368 154.434 122.398C155.621 120.428 156.215 118.226 156.215 115.792V115.706C156.215 113.185 155.65 110.954 154.521 109.013C153.391 107.072 151.826 105.551 149.827 104.45C147.828 103.32 145.568 102.755 143.048 102.755C140.527 102.755 138.239 103.306 136.182 104.407C134.154 105.508 132.546 107.029 131.358 108.97C130.199 110.882 129.62 113.069 129.62 115.532V115.575H127.012V104.928H127.925C128.765 103.045 130.011 101.35 131.662 99.8438C133.313 98.3083 135.284 97.0915 137.572 96.1934C139.861 95.2952 142.425 94.8462 145.264 94.8462C149.291 94.8462 152.855 95.7443 155.955 97.5405C159.055 99.3078 161.488 101.756 163.255 104.885C165.052 107.985 165.95 111.505 165.95 115.445V115.532C165.95 119.704 164.95 123.412 162.951 126.657C160.981 129.873 158.272 132.408 154.825 134.262C151.377 136.116 147.451 137.043 143.048 137.043Z" fill="#CDCDCD"/>
</g>
<defs>
<clipPath id="clip0_2_2">
<rect width="783" height="783" fill="white"/>
</clipPath>
</defs>
</svg>
